# xmcd
#
# Track frame offsets:
#	150
#	12545
#	29417
#	48710
#	56732
#	73947
#	84400
#	98430
#	109650
#	125025
#	143495
#	159510
#	174450
#	191852
#	205940
#	222242
#	243125
#	259972
#	276775
#	289285
#
# Disc length: 4124 seconds
#
# Revision: 1
# Processed by: cddbd v1.5.2PL0 Copyright (c) Steve Scherf et al.
# Submitted via: audiograbber 1.83.01
#
DISCID=31101a14
DTITLE=VÁRIOS - PIAUIENSES DO BARULHO-1
DYEAR=1900
DGENRE=
TTITLE0=QUINTETO VIOLADO - TERESINA
TTITLE1=BOB ROBSON - MELÔ DA LAU DE MEL
TTITLE2=JORGE MELO - CANÇÃO GESTA DE UM TROVADOR ELOTRÔNICO
TTITLE3=EDVALDO NASCIMENTO - GO BACK
TTITLE4=RONALDO BRINGEL - ÁGHATA
TTITLE5=JOÃO CLÁUDIO - ÁGUA BARRENTA
TTITLE6=ENES GOMES-JOÃO CLÁUDIO - ASSIM NÃO DÁ
TTITLE7=ERISVALDO BORGES - BREJEIRO
TTITLE8=NAENO - MEU AMOR
TTITLE9=JORGE MELLO - EU FALEI PRA VOCÊ
TTITLE10=LÁZARO - MORENA
TTITLE11=EDVALDO NASCIMENTO - QUANDO AGENTE QUER
TTITLE12=GILVAN SANTOS - BOI DA ALEGRIA
TTITLE13=JORGE MELLO-BELCHIOR - PLOFT
TTITLE14=RONALDO BRINGEL - BOCA
TTITLE15=LUIS SANTOS - PUXA SACO
TTITLE16=CRUZ NETO - A COR DAS ÁGUAS
TTITLE17=ROSINHA AMORIM - LUA ACIMA, RUA ABAIXO
TTITLE18=MACHADO JUNIOR E BANDA - O APITO
TTITLE19=MEGAHERTZ - DISCARGE
EXTD=
EXTT0=
EXTT1=
EXTT2=
EXTT3=
EXTT4=
EXTT5=
EXTT6=
EXTT7=
EXTT8=
EXTT9=
EXTT10=
EXTT11=
EXTT12=
EXTT13=
EXTT14=
EXTT15=
EXTT16=
EXTT17=
EXTT18=
EXTT19=
PLAYORDER=
